<svg id="Capa_1" enable-background="new 0 0 512 512" height="512" viewBox="0 0 512 512" width="512" xmlns="http://www.w3.org/2000/svg"><g><path d="m135 92h61c8.284 0 15-6.716 15-15s-6.716-15-15-15h-61c-8.284 0-15 6.716-15 15s6.716 15 15 15z"/><path d="m135 152h61c8.284 0 15-6.716 15-15s-6.716-15-15-15h-61c-8.284 0-15 6.716-15 15s6.716 15 15 15z"/><path d="m135 212h61c8.284 0 15-6.716 15-15s-6.716-15-15-15h-61c-8.284 0-15 6.716-15 15s6.716 15 15 15z"/><path d="m135 272h61c8.284 0 15-6.716 15-15s-6.716-15-15-15h-61c-8.284 0-15 6.716-15 15s6.716 15 15 15z"/><path d="m135 332h61c8.284 0 15-6.716 15-15s-6.716-15-15-15h-61c-8.284 0-15 6.716-15 15s6.716 15 15 15z"/><path d="m316 212h61c8.284 0 15-6.716 15-15s-6.716-15-15-15h-61c-8.284 0-15 6.716-15 15s6.716 15 15 15z"/><path d="m316 272h61c8.284 0 15-6.716 15-15s-6.716-15-15-15h-61c-8.284 0-15 6.716-15 15s6.716 15 15 15z"/><path d="m316 332h61c8.284 0 15-6.716 15-15s-6.716-15-15-15h-61c-8.284 0-15 6.716-15 15s6.716 15 15 15z"/><path d="m497 52h-45v-37c0-8.284-6.716-15-15-15h-121c-24.507 0-46.305 11.814-60 30.047-13.695-18.233-35.493-30.047-60-30.047h-121c-8.284 0-15 6.716-15 15v37h-45c-8.284 0-15 6.716-15 15v370c0 8.284 6.716 15 15 15h167.507c6.969 34.191 37.274 60 73.493 60s66.524-25.809 73.493-60h167.507c8.284 0 15-6.716 15-15v-370c0-8.284-6.716-15-15-15zm-166-22h31v61.206l-4.981-4.9c-5.837-5.741-15.2-5.741-21.037 0l-4.981 4.9v-61.206zm-30 2.58v94.42c0 6.044 3.628 11.498 9.203 13.834s12.007 1.097 16.316-3.141l19.981-19.653 19.981 19.654c2.862 2.815 6.66 4.307 10.522 4.307 1.953 0 3.922-.382 5.794-1.166 5.575-2.336 9.203-7.79 9.203-13.834v-97.001h30v332h-106c-16.87 0-32.457 5.599-45 15.036v-302.036c0-19.555 12.541-36.228 30-42.42zm-211-2.58h106c24.813 0 45 20.187 45 45v302.036c-12.543-9.437-28.13-15.036-45-15.036h-106zm392 392h-166c-8.284 0-15 6.716-15 15 0 24.813-20.187 45-45 45s-45-20.187-45-45c0-8.284-6.716-15-15-15h-166v-340h30v295c0 8.284 6.716 15 15 15h121c24.813 0 45 20.187 45 45 0 8.284 6.716 15 15 15s15-6.716 15-15c0-24.813 20.187-45 45-45h121c8.284 0 15-6.716 15-15v-295h30z"/></g></svg>